<?xml version="1.0" encoding="UTF-8" standalone="no"?>
<!DOCTYPE svg PUBLIC "-//W3C//DTD SVG 1.1//EN" "http://www.w3.org/Graphics/SVG/1.1/DTD/svg11.dtd">
<svg width="100%" height="100%" viewBox="0 0 856 385" version="1.1" xmlns="http://www.w3.org/2000/svg" xmlns:xlink="http://www.w3.org/1999/xlink" xml:space="preserve" xmlns:serif="http://www.serif.com/" style="fill-rule:evenodd;clip-rule:evenodd;stroke-linejoin:round;stroke-miterlimit:2;">
    <g transform="matrix(1,0,0,1,-1294.63,-1089.63)">
        <g transform="matrix(51.8266,-37.55,37.55,51.8266,1804.76,1171.65)">
            <path d="M0.21,-0.621L0.295,-0.621L0.295,-0.165C0.295,-0.041 0.243,0.021 0.14,0.021C0.104,0.021 0.069,0.012 0.034,-0.007L0.076,-0.076C0.104,-0.067 0.126,-0.062 0.143,-0.062C0.188,-0.062 0.21,-0.092 0.21,-0.152L0.21,-0.621Z" style="fill:white;fill-rule:nonzero;"/>
        </g>
        <g transform="matrix(59.4489,-23.703,23.703,59.4489,1836.07,1150.27)">
            <path d="M0.297,-0.646L0.591,-0L0.502,-0L0.43,-0.159L0.166,-0.159L0.094,-0L0.006,-0L0.297,-0.646ZM0.297,-0.452L0.197,-0.23L0.397,-0.23L0.297,-0.452Z" style="fill:white;fill-rule:nonzero;"/>
        </g>
        <g transform="matrix(63.4998,-7.98579,7.98579,63.4998,1884.93,1133.11)">
            <path d="M0.047,-0.622L0.467,-0.622L0.17,-0.084L0.461,-0.084L0.461,-0L0.032,-0L0.328,-0.537L0.047,-0.537L0.047,-0.622Z" style="fill:white;fill-rule:nonzero;"/>
        </g>
        <g transform="matrix(63.6387,6.79052,-6.79052,63.6387,1930.24,1129)">
            <path d="M0.047,-0.622L0.467,-0.622L0.17,-0.084L0.461,-0.084L0.461,-0L0.032,-0L0.328,-0.537L0.047,-0.537L0.047,-0.622Z" style="fill:white;fill-rule:nonzero;"/>
        </g>
        <g transform="matrix(55.2728,32.2632,-32.2632,55.2728,2005.37,1145.83)">
            <path d="M0.297,-0.646L0.591,-0L0.502,-0L0.43,-0.159L0.166,-0.159L0.094,-0L0.006,-0L0.297,-0.646ZM0.297,-0.452L0.197,-0.23L0.397,-0.23L0.297,-0.452Z" style="fill:white;fill-rule:nonzero;"/>
        </g>
        <g transform="matrix(46.1862,44.3038,-44.3038,46.1862,2046.56,1172.01)">
            <path d="M0.027,-0.622L0.407,-0.622L0.407,-0.537L0.259,-0.537L0.259,-0L0.175,-0L0.175,-0.537L0.027,-0.537L0.027,-0.622Z" style="fill:white;fill-rule:nonzero;"/>
        </g>
        <g transform="matrix(24.1273,59.2779,-59.2779,24.1273,2092.38,1228.85)">
            <path d="M0.027,-0.622L0.407,-0.622L0.407,-0.537L0.259,-0.537L0.259,-0L0.175,-0L0.175,-0.537L0.027,-0.537L0.027,-0.622Z" style="fill:white;fill-rule:nonzero;"/>
        </g>
        <g transform="matrix(7.00738,63.6152,-63.6152,7.00738,2106.8,1267.09)">
            <path d="M0.068,-0.622L0.153,-0.622L0.153,-0.383L0.45,-0.383L0.45,-0.622L0.534,-0.622L0.534,-0L0.45,-0L0.45,-0.299L0.153,-0.299L0.153,-0L0.068,-0L0.068,-0.622Z" style="fill:white;fill-rule:nonzero;"/>
        </g>
        <g transform="matrix(-10.8291,63.0772,-63.0772,-10.8291,2110,1318.35)">
            <path d="M0.058,-0.622L0.403,-0.622L0.403,-0.537L0.142,-0.537L0.142,-0.382L0.403,-0.382L0.403,-0.298L0.142,-0.298L0.142,-0.084L0.403,-0.084L0.403,-0L0.058,-0L0.058,-0.622Z" style="fill:white;fill-rule:nonzero;"/>
        </g>
    </g>
    <g transform="matrix(0.777609,0,0,0.777609,-74.8706,-102.338)">
        <g transform="matrix(0,265.035,265.035,0,124.881,349.661)">
            <path d="M0.09,-0.108C0.09,-0.108 0.096,-0.108 0.097,-0.105C0.102,-0.09 0.107,-0.039 0.162,-0.039L0.691,-0.039C0.747,-0.039 0.752,-0.09 0.757,-0.105C0.758,-0.108 0.765,-0.108 0.765,-0.108L0.765,0.108C0.765,0.108 0.758,0.108 0.757,0.105C0.752,0.09 0.747,0.039 0.691,0.039L0.162,0.039C0.107,0.039 0.102,0.09 0.097,0.105C0.096,0.108 0.09,0.108 0.09,0.108L0.09,-0.108Z" style="fill:url(#_Linear1);fill-rule:nonzero;"/>
        </g>
        <g transform="matrix(0,265.035,265.035,0,275.667,349.661)">
            <path d="M0.09,0.229L0.652,0.003L0.403,-0.096L0.09,-0.221L0.09,-0.346C0.09,-0.346 0.096,-0.345 0.097,-0.342C0.102,-0.327 0.109,-0.288 0.168,-0.294L0.164,-0.293L0.403,-0.318L0.697,-0.349C0.751,-0.358 0.752,-0.407 0.757,-0.422C0.758,-0.425 0.765,-0.425 0.765,-0.425L0.765,-0.264C0.765,-0.264 0.758,-0.264 0.757,-0.266C0.752,-0.281 0.752,-0.328 0.704,-0.327L0.403,-0.296L0.187,-0.273L0.403,-0.186L0.765,-0.042L0.765,-0.017L0.403,0.128L0.182,0.216L0.403,0.239L0.703,0.27C0.752,0.271 0.752,0.225 0.757,0.21C0.758,0.207 0.765,0.207 0.765,0.207L0.765,0.425C0.765,0.425 0.758,0.425 0.757,0.423C0.752,0.408 0.751,0.359 0.699,0.35L0.403,0.319L0.157,0.293C0.11,0.294 0.102,0.329 0.097,0.343C0.096,0.346 0.09,0.346 0.09,0.346L0.09,0.229Z" style="fill:url(#_Linear2);fill-rule:nonzero;"/>
        </g>
        <g transform="matrix(0,265.022,265.022,0,475.737,349.671)">
            <path d="M0.089,-0.294C0.089,-0.294 0.096,-0.294 0.097,-0.291C0.102,-0.276 0.107,-0.224 0.162,-0.224L0.691,-0.224C0.747,-0.224 0.752,-0.276 0.757,-0.291C0.758,-0.294 0.765,-0.294 0.765,-0.294L0.765,-0.078C0.765,-0.078 0.758,-0.078 0.757,-0.081C0.752,-0.096 0.747,-0.147 0.691,-0.147L0.515,-0.147L0.515,-0.03C0.515,0.076 0.467,0.147 0.403,0.182C0.277,0.251 0.09,0.18 0.09,-0.03L0.09,-0.224L0.089,-0.224L0.089,-0.294ZM0.112,-0.147L0.112,-0.055C0.112,0.107 0.291,0.159 0.403,0.099C0.455,0.071 0.493,0.02 0.493,-0.055L0.493,-0.147L0.112,-0.147Z" style="fill:url(#_Linear3);fill-rule:nonzero;"/>
        </g>
        <g transform="matrix(0,265.033,265.033,0,689.727,349.662)">
            <path d="M0.09,-0.54C0.09,-0.54 0.096,-0.54 0.097,-0.537C0.103,-0.521 0.107,-0.47 0.162,-0.47L0.691,-0.47C0.747,-0.47 0.752,-0.521 0.757,-0.537C0.758,-0.54 0.765,-0.54 0.765,-0.54L0.765,-0.323C0.765,-0.323 0.758,-0.323 0.757,-0.326C0.752,-0.341 0.747,-0.393 0.691,-0.393L0.451,-0.393L0.451,-0.371C0.451,-0.18 1.044,-0.088 1.044,0.341C1.044,0.461 0.968,0.54 0.904,0.54C0.861,0.54 0.845,0.513 0.845,0.489C0.845,0.466 0.858,0.444 0.877,0.444C0.909,0.497 1.022,0.478 1.022,0.347C1.022,0.087 0.555,-0.05 0.45,-0.278C0.445,-0.22 0.428,-0.174 0.403,-0.14C0.306,-0.004 0.09,-0.061 0.09,-0.309L0.09,-0.54ZM0.112,-0.393L0.112,-0.334C0.112,-0.132 0.329,-0.097 0.403,-0.229C0.419,-0.257 0.428,-0.292 0.428,-0.334L0.428,-0.393L0.112,-0.393Z" style="fill:url(#_Linear4);fill-rule:nonzero;"/>
        </g>
        <g transform="matrix(0,265.035,265.035,0,973.513,349.661)">
            <path d="M0.09,0.287L0.403,0.148L0.664,0.031L0.403,-0.085L0.153,-0.196C0.108,-0.209 0.103,-0.172 0.098,-0.157C0.097,-0.154 0.09,-0.154 0.09,-0.154L0.09,-0.359C0.091,-0.359 0.097,-0.359 0.098,-0.356C0.103,-0.341 0.116,-0.303 0.157,-0.284L0.403,-0.174L0.765,-0.013L0.765,0.011L0.403,0.172L0.157,0.282C0.116,0.301 0.103,0.339 0.098,0.354C0.097,0.357 0.09,0.354 0.09,0.354L0.09,0.287ZM0.09,0.216C0.09,0.216 0.097,0.217 0.098,0.219C0.106,0.235 0.109,0.278 0.163,0.254L0.09,0.287L0.09,0.216Z" style="fill:url(#_Linear5);fill-rule:nonzero;"/>
        </g>
        <g transform="matrix(0,82.9929,82.9929,0,124.881,373.569)">
            <path d="M0,-0.345C0,-0.345 0.018,-0.345 0.022,-0.335C0.037,-0.286 0.052,-0.123 0.231,-0.123L1,-0.123L1,0.123L0.231,0.123C0.052,0.123 0.037,0.286 0.022,0.335C0.018,0.345 0,0.345 0,0.345L0,-0.345Z" style="fill:url(#_Linear6);fill-rule:nonzero;"/>
        </g>
        <g transform="matrix(0,82.9929,82.9929,0,217.065,373.569)">
            <path d="M0,-0.4C0,-0.4 0.018,-0.397 0.022,-0.388C0.037,-0.338 0.058,-0.212 0.249,-0.234L0.237,-0.231L1,-0.311L1,-0.238L0.308,-0.166L1,0.111L1,0.4L0,0L0,-0.4Z" style="fill:url(#_Linear7);fill-rule:nonzero;"/>
        </g>
        <g transform="matrix(0,82.9929,82.9929,0,335.243,373.569)">
            <path d="M0,0.013L1,-0.388L1,-0.31L0.292,-0.027L1,0.046L1,0.302L0.212,0.219C0.062,0.222 0.037,0.333 0.022,0.379C0.018,0.388 0,0.388 0,0.388L0,0.013Z" style="fill:url(#_Linear8);fill-rule:nonzero;"/>
        </g>
        <g transform="matrix(0,83.2384,83.2384,0,475.737,373.324)">
            <path d="M0,-0.936C0,-0.936 0.021,-0.936 0.024,-0.926C0.04,-0.877 0.055,-0.715 0.233,-0.715L1,-0.715L1,-0.469L0.073,-0.469L0.073,-0.175C0.073,0.342 0.642,0.505 1,0.314L1,0.579C0.599,0.798 0.003,0.573 0.003,-0.095L0.003,-0.715L0,-0.715L0,-0.936Z" style="fill:url(#_Linear9);fill-rule:nonzero;"/>
        </g>
        <g transform="matrix(0,82.9929,82.9929,0,626.189,373.569)">
            <path d="M0,-0.957C0,-0.957 0.018,-0.957 0.022,-0.948C0.04,-0.899 0.052,-0.736 0.231,-0.736L1,-0.736L1,-0.49L0.071,-0.49L0.071,-0.302C0.071,0.344 0.761,0.456 1,0.033L1,0.319C0.688,0.753 0,0.572 0,-0.222L0,-0.957Z" style="fill:url(#_Linear10);fill-rule:nonzero;"/>
        </g>
        <g transform="matrix(0,82.9929,82.9929,0,914.777,373.569)">
            <path d="M0,-0.438C0.003,-0.438 0.022,-0.438 0.025,-0.429C0.04,-0.382 0.083,-0.259 0.212,-0.198L1,0.153L1,0.438L0.2,0.082C0.055,0.039 0.04,0.159 0.025,0.205C0.022,0.214 0,0.214 0,0.214L0,-0.438Z" style="fill:url(#_Linear11);fill-rule:nonzero;"/>
        </g>
        <g transform="matrix(-17.2626,8.85021,8.85021,17.2626,1048.84,378.844)">
            <path d="M0.7,-0.664C0.7,-0.664 0.73,-0.576 0.713,-0.553C0.573,-0.363 0.064,-0.057 0.7,0.46L-0.156,-0.226L0.7,-0.664Z" style="fill:url(#_Linear12);fill-rule:nonzero;"/>
        </g>
        <g transform="matrix(0,82.9929,82.9929,0,1040.6,373.569)">
            <path d="M0,0.108L1,-0.337L1,-0.259L0.212,0.092C0.083,0.154 0.04,0.274 0.025,0.323C0.022,0.332 0,0.323 0,0.323L0,0.108Z" style="fill:url(#_Linear13);fill-rule:nonzero;"/>
        </g>
        <g transform="matrix(-137.364,137.364,137.364,137.364,844.707,368.927)">
            <path d="M0.889,-0.201C1.069,-0.022 1.084,0.258 0.932,0.445C0.932,0.445 0.932,0.444 0.932,0.444C0.932,0.438 0.927,0.433 0.923,0.43C0.905,0.415 0.893,0.396 0.886,0.374C0.875,0.341 0.858,0.311 0.85,0.277C0.842,0.246 0.826,0.221 0.793,0.207C0.753,0.188 0.716,0.16 0.674,0.145C0.653,0.138 0.633,0.128 0.614,0.117C0.604,0.112 0.595,0.107 0.586,0.102C0.585,0.1 0.583,0.098 0.58,0.097C0.579,0.096 0.577,0.095 0.577,0.093C0.574,0.085 0.567,0.08 0.56,0.075C0.557,0.073 0.555,0.071 0.553,0.068C0.549,0.064 0.544,0.06 0.538,0.058C0.531,0.056 0.528,0.046 0.533,0.04C0.544,0.025 0.555,0.009 0.566,-0.006C0.57,-0.011 0.575,-0.017 0.58,-0.022C0.585,-0.028 0.59,-0.034 0.59,-0.043C0.591,-0.048 0.593,-0.052 0.598,-0.055C0.603,-0.059 0.603,-0.061 0.598,-0.065C0.59,-0.07 0.582,-0.075 0.574,-0.079C0.572,-0.08 0.571,-0.081 0.568,-0.083C0.573,-0.09 0.577,-0.097 0.581,-0.103C0.582,-0.104 0.584,-0.104 0.585,-0.103C0.61,-0.097 0.634,-0.091 0.658,-0.085C0.66,-0.084 0.661,-0.082 0.662,-0.08C0.662,-0.079 0.662,-0.077 0.662,-0.075C0.662,-0.071 0.664,-0.07 0.667,-0.07C0.675,-0.07 0.682,-0.069 0.69,-0.069C0.697,-0.069 0.697,-0.069 0.698,-0.077C0.71,-0.08 0.72,-0.087 0.729,-0.097C0.748,-0.118 0.744,-0.152 0.722,-0.17C0.713,-0.177 0.703,-0.182 0.692,-0.186C0.661,-0.195 0.631,-0.205 0.6,-0.214C0.579,-0.22 0.561,-0.232 0.547,-0.249C0.546,-0.251 0.544,-0.253 0.543,-0.255C0.541,-0.259 0.541,-0.264 0.545,-0.268C0.547,-0.269 0.547,-0.271 0.547,-0.273C0.546,-0.273 0.544,-0.273 0.542,-0.273C0.518,-0.258 0.493,-0.244 0.469,-0.23C0.467,-0.229 0.467,-0.228 0.466,-0.226C0.467,-0.226 0.468,-0.226 0.47,-0.226C0.475,-0.226 0.48,-0.223 0.484,-0.22C0.494,-0.211 0.504,-0.202 0.514,-0.193C0.507,-0.191 0.502,-0.186 0.5,-0.178C0.491,-0.18 0.482,-0.18 0.475,-0.185C0.468,-0.188 0.462,-0.19 0.456,-0.192C0.455,-0.192 0.454,-0.192 0.454,-0.193C0.453,-0.199 0.447,-0.197 0.444,-0.198C0.443,-0.199 0.441,-0.196 0.44,-0.195C0.438,-0.195 0.437,-0.195 0.434,-0.195C0.438,-0.192 0.442,-0.19 0.445,-0.187C0.444,-0.18 0.441,-0.178 0.434,-0.18C0.434,-0.183 0.433,-0.187 0.432,-0.191C0.433,-0.19 0.435,-0.189 0.436,-0.189C0.436,-0.189 0.437,-0.19 0.437,-0.191C0.436,-0.191 0.435,-0.192 0.434,-0.192C0.426,-0.196 0.419,-0.199 0.412,-0.203C0.408,-0.204 0.404,-0.205 0.4,-0.206C0.393,-0.207 0.385,-0.207 0.378,-0.207C0.376,-0.207 0.373,-0.209 0.371,-0.209C0.37,-0.21 0.368,-0.21 0.366,-0.209C0.363,-0.209 0.36,-0.208 0.356,-0.207C0.355,-0.205 0.353,-0.204 0.349,-0.205C0.333,-0.21 0.317,-0.213 0.302,-0.217C0.3,-0.218 0.299,-0.219 0.298,-0.219C0.296,-0.22 0.294,-0.221 0.291,-0.222C0.286,-0.222 0.281,-0.223 0.276,-0.223C0.273,-0.224 0.27,-0.224 0.27,-0.229C0.269,-0.23 0.267,-0.231 0.265,-0.232C0.264,-0.229 0.263,-0.227 0.263,-0.226C0.251,-0.226 0.239,-0.227 0.227,-0.226C0.225,-0.226 0.222,-0.225 0.22,-0.224C0.407,-0.396 0.703,-0.388 0.889,-0.201Z" style="fill:url(#_Linear14);fill-rule:nonzero;"/>
        </g>
        <g transform="matrix(-137.364,137.364,137.364,137.364,834.312,358.531)">
            <path d="M0.693,-0.002C0.693,-0.002 0.694,-0.001 0.694,-0.001C0.694,-0.001 0.693,0 0.693,0.001C0.692,0.002 0.69,0.003 0.689,0.003C0.686,0.003 0.686,0 0.686,-0.003C0.688,-0.003 0.691,-0.003 0.693,-0.002Z" style="fill:url(#_Linear15);fill-rule:nonzero;"/>
        </g>
        <g transform="matrix(-137.364,137.364,137.364,137.364,826.438,350.657)">
            <path d="M0.636,-0.007C0.64,-0.006 0.644,-0.005 0.648,-0.004C0.648,-0.003 0.648,-0.002 0.648,-0.002C0.646,-0.002 0.644,-0.002 0.642,-0.002C0.639,-0.002 0.636,-0.002 0.634,0C0.629,0.005 0.626,0.001 0.622,-0C0.627,-0.002 0.635,0.003 0.636,-0.007Z" style="fill:url(#_Linear16);fill-rule:nonzero;"/>
        </g>
        <g transform="matrix(-137.364,137.364,137.364,137.364,830.192,354.411)">
            <path d="M0.248,-0.103C0.248,-0.102 0.248,-0.1 0.248,-0.098C0.251,-0.097 0.255,-0.095 0.258,-0.094C0.285,-0.087 0.311,-0.079 0.338,-0.072C0.342,-0.07 0.347,-0.07 0.35,-0.064C0.354,-0.055 0.36,-0.047 0.366,-0.038C0.368,-0.034 0.371,-0.03 0.376,-0.028C0.378,-0.027 0.379,-0.025 0.379,-0.023C0.38,-0.018 0.38,-0.012 0.381,-0.007C0.381,0.004 0.382,0.015 0.38,0.025C0.378,0.041 0.375,0.056 0.371,0.071C0.369,0.08 0.365,0.089 0.356,0.094C0.354,0.095 0.352,0.096 0.35,0.095C0.329,0.09 0.308,0.094 0.288,0.1C0.28,0.103 0.273,0.103 0.266,0.102C0.26,0.101 0.253,0.098 0.247,0.103C0.247,0.103 0.246,0.103 0.246,0.103C0.234,0.101 0.224,0.092 0.225,0.08C0.226,0.077 0.227,0.074 0.227,0.071C0.228,0.063 0.223,0.057 0.215,0.056C0.211,0.055 0.208,0.056 0.204,0.055C0.197,0.055 0.191,0.051 0.185,0.047C0.187,0.044 0.189,0.042 0.191,0.039C0.193,0.036 0.195,0.032 0.201,0.034C0.196,0.03 0.197,0.026 0.202,0.024C0.203,0.024 0.205,0.024 0.206,0.025C0.207,0.025 0.207,0.024 0.207,0.024C0.206,0.023 0.205,0.021 0.203,0.019C0.205,0.012 0.207,0.004 0.209,-0.003C0.217,-0.023 0.221,-0.043 0.219,-0.065C0.219,-0.069 0.219,-0.074 0.219,-0.078C0.22,-0.084 0.223,-0.09 0.228,-0.094C0.233,-0.1 0.24,-0.103 0.248,-0.103Z" style="fill:url(#_Linear17);fill-rule:nonzero;"/>
        </g>
        <g transform="matrix(-137.364,137.364,137.364,137.364,821.947,346.167)">
            <path d="M0.531,-0.001C0.531,-0 0.531,0 0.531,0.001C0.528,0.003 0.525,0.005 0.522,0.007C0.519,-0 0.513,-0.002 0.508,-0.003C0.506,-0.004 0.505,-0.005 0.504,-0.006C0.504,-0.006 0.504,-0.007 0.505,-0.007C0.514,-0.005 0.522,-0.003 0.531,-0.001Z" style="fill:url(#_Linear18);fill-rule:nonzero;"/>
        </g>
        <g transform="matrix(-137.364,137.364,137.364,137.364,817.978,342.198)">
            <path d="M0.213,-0.017C0.211,-0.005 0.208,0.006 0.206,0.018C0.205,0.017 0.203,0.016 0.202,0.015C0.202,0.005 0.203,-0.004 0.207,-0.014C0.207,-0.015 0.208,-0.016 0.209,-0.017C0.21,-0.018 0.212,-0.018 0.213,-0.017Z" style="fill:url(#_Linear19);fill-rule:nonzero;"/>
        </g>
        <g transform="matrix(-137.364,137.364,137.364,137.364,827.634,351.853)">
            <path d="M0.201,-0.043C0.202,-0.04 0.203,-0.036 0.204,-0.033C0.204,-0.033 0.205,-0.033 0.205,-0.033C0.204,-0.038 0.204,-0.043 0.203,-0.047C0.206,-0.049 0.207,-0.047 0.207,-0.044C0.21,-0.019 0.204,0.003 0.189,0.024C0.187,0.027 0.185,0.03 0.183,0.033C0.18,0.038 0.178,0.044 0.178,0.051C0.179,0.055 0.178,0.059 0.177,0.064C0.176,0.065 0.175,0.067 0.173,0.067C0.17,0.068 0.167,0.068 0.164,0.069C0.164,0.069 0.163,0.068 0.163,0.067C0.159,0.062 0.157,0.062 0.153,0.067C0.152,0.068 0.151,0.069 0.151,0.07C0.146,0.078 0.141,0.082 0.131,0.083C0.123,0.085 0.119,0.084 0.115,0.077C0.112,0.072 0.108,0.069 0.104,0.065C0.127,0.01 0.161,-0.041 0.205,-0.086C0.199,-0.072 0.199,-0.058 0.201,-0.043Z" style="fill:url(#_Linear20);fill-rule:nonzero;"/>
        </g>
        <g transform="matrix(-137.364,137.364,137.364,137.364,900.501,424.721)">
            <path d="M0.731,-0.114C0.734,-0.117 0.738,-0.115 0.74,-0.111C0.742,-0.104 0.747,-0.101 0.753,-0.098C0.758,-0.096 0.762,-0.091 0.764,-0.086C0.778,-0.057 0.793,-0.027 0.807,0.002C0.814,0.017 0.818,0.033 0.831,0.042C0.846,0.053 0.856,0.067 0.865,0.083C0.868,0.089 0.871,0.094 0.873,0.1C0.866,0.107 0.859,0.113 0.851,0.118C0.848,0.116 0.845,0.114 0.842,0.113C0.836,0.108 0.834,0.104 0.833,0.1C0.829,0.092 0.826,0.083 0.82,0.077C0.795,0.054 0.792,0.019 0.773,-0.007C0.771,-0.009 0.771,-0.011 0.771,-0.013C0.771,-0.049 0.753,-0.079 0.733,-0.107C0.732,-0.109 0.728,-0.111 0.73,-0.114C0.73,-0.114 0.731,-0.114 0.731,-0.114Z" style="fill:url(#_Linear21);fill-rule:nonzero;"/>
        </g>
        <g transform="matrix(-137.364,137.364,137.364,137.364,835.437,359.656)">
            <path d="M0.417,-0.084C0.425,-0.081 0.432,-0.078 0.44,-0.076C0.446,-0.074 0.452,-0.075 0.458,-0.073C0.48,-0.068 0.502,-0.062 0.523,-0.057C0.524,-0.054 0.525,-0.051 0.526,-0.048C0.529,-0.037 0.532,-0.026 0.529,-0.014C0.526,-0.001 0.524,0.012 0.516,0.023C0.512,0.028 0.509,0.033 0.505,0.037C0.505,0.038 0.505,0.045 0.498,0.053C0.487,0.068 0.477,0.071 0.476,0.072C0.475,0.073 0.474,0.074 0.473,0.076C0.473,0.076 0.473,0.076 0.472,0.077C0.468,0.082 0.463,0.083 0.458,0.08L0.458,0.08C0.454,0.077 0.449,0.073 0.447,0.068C0.444,0.059 0.441,0.05 0.445,0.04C0.447,0.033 0.447,0.026 0.445,0.02C0.441,0.01 0.441,0.001 0.446,-0.009C0.452,-0.022 0.454,-0.035 0.451,-0.049C0.451,-0.052 0.452,-0.055 0.452,-0.058C0.452,-0.06 0.451,-0.062 0.451,-0.063C0.442,-0.066 0.434,-0.07 0.425,-0.073C0.42,-0.075 0.415,-0.078 0.413,-0.084C0.415,-0.084 0.416,-0.084 0.417,-0.084Z" style="fill:url(#_Linear22);fill-rule:nonzero;"/>
        </g>
        <g transform="matrix(-137.364,137.364,137.364,137.364,821.301,345.52)">
            <path d="M0.496,-0.005C0.497,-0.004 0.498,-0.004 0.498,-0.004C0.497,-0.001 0.496,0.002 0.494,0.005C0.494,0.004 0.493,0.004 0.493,0.004C0.494,0.002 0.493,-0.002 0.495,-0.004C0.495,-0.004 0.496,-0.004 0.496,-0.005Z" style="fill:url(#_Linear23);fill-rule:nonzero;"/>
        </g>
        <g transform="matrix(-137.364,137.364,137.364,137.364,820.167,344.387)">
            <path d="M0.45,-0.008C0.455,-0.007 0.459,-0.005 0.464,-0.004C0.473,-0.002 0.482,0 0.492,0.002C0.491,0.005 0.491,0.006 0.49,0.008C0.481,0.003 0.472,-0.002 0.462,0.006C0.46,-0.003 0.454,-0.004 0.447,-0.005C0.446,-0.005 0.446,-0.006 0.446,-0.007C0.447,-0.007 0.449,-0.008 0.45,-0.008Z" style="fill:url(#_Linear24);fill-rule:nonzero;"/>
        </g>
        <g transform="matrix(-53.5254,186.743,186.743,53.5254,832.382,359.929)">
            <path d="M0.096,-0.005C0.098,-0.004 0.101,-0.002 0.103,0C0.1,0.003 0.098,0.007 0.096,0.01C0.095,0.004 0.094,-0.001 0.093,-0.007C0.094,-0.007 0.095,-0.006 0.096,-0.005Z" style="fill:url(#_Linear25);fill-rule:nonzero;"/>
        </g>
        <g transform="matrix(37.9047,190.528,190.528,-37.9047,728.814,316.619)">
            <path d="M0.514,-0.007C0.52,-0.013 0.529,-0.012 0.536,-0.005C0.528,0.002 0.521,0.009 0.514,0.015C0.511,0.013 0.51,0.01 0.509,0.007C0.508,0.002 0.51,-0.003 0.514,-0.007Z" style="fill:url(#_Linear26);fill-rule:nonzero;"/>
        </g>
        <g transform="matrix(-137.364,137.364,137.364,137.364,821.241,345.461)">
            <path d="M0.574,0.002C0.569,0.008 0.569,0.008 0.562,0.004C0.561,0.004 0.559,0.003 0.559,0.004C0.551,0.007 0.544,0.004 0.538,0.003C0.538,-0.002 0.537,-0.006 0.537,-0.009C0.549,-0.006 0.562,-0.002 0.574,0.002Z" style="fill:url(#_Linear27);fill-rule:nonzero;"/>
        </g>
        <g transform="matrix(-137.364,137.364,137.364,137.364,822.672,346.891)">
            <path d="M0.581,-0.007C0.59,-0.005 0.599,-0.002 0.608,0C0.608,0.001 0.608,0.001 0.609,0.002C0.605,0.004 0.602,0.008 0.6,0.007C0.595,0.007 0.59,0.004 0.585,0.002C0.582,0.001 0.578,-0.002 0.575,-0.004C0.576,-0.005 0.579,-0.007 0.581,-0.007Z" style="fill:url(#_Linear28);fill-rule:nonzero;"/>
        </g>
        <g transform="matrix(-137.364,137.364,137.364,137.364,896.425,420.645)">
            <path d="M0.078,-0.317C0.081,-0.308 0.087,-0.301 0.093,-0.294C0.096,-0.29 0.1,-0.288 0.105,-0.288C0.114,-0.288 0.123,-0.288 0.132,-0.288C0.132,-0.284 0.132,-0.28 0.133,-0.277C0.133,-0.271 0.134,-0.265 0.135,-0.26C0.135,-0.258 0.137,-0.255 0.139,-0.255C0.141,-0.255 0.144,-0.257 0.144,-0.259C0.147,-0.267 0.149,-0.275 0.152,-0.284C0.152,-0.285 0.152,-0.287 0.152,-0.29C0.159,-0.288 0.164,-0.286 0.17,-0.283C0.17,-0.284 0.17,-0.285 0.17,-0.286C0.175,-0.287 0.179,-0.287 0.184,-0.288C0.183,-0.289 0.183,-0.291 0.182,-0.293C0.184,-0.293 0.187,-0.293 0.189,-0.293C0.189,-0.294 0.188,-0.296 0.188,-0.298C0.191,-0.297 0.193,-0.297 0.195,-0.297C0.195,-0.299 0.194,-0.301 0.193,-0.304C0.196,-0.303 0.198,-0.303 0.201,-0.302C0.201,-0.303 0.2,-0.305 0.2,-0.306C0.205,-0.306 0.204,-0.303 0.204,-0.3C0.203,-0.298 0.202,-0.295 0.203,-0.294C0.206,-0.292 0.21,-0.288 0.213,-0.289C0.224,-0.291 0.229,-0.286 0.236,-0.279C0.247,-0.267 0.259,-0.257 0.27,-0.246C0.279,-0.238 0.286,-0.229 0.295,-0.221C0.305,-0.212 0.318,-0.208 0.331,-0.208C0.336,-0.208 0.34,-0.208 0.344,-0.209C0.356,-0.209 0.367,-0.207 0.375,-0.197C0.378,-0.192 0.383,-0.191 0.388,-0.19C0.402,-0.178 0.417,-0.167 0.431,-0.155C0.454,-0.135 0.48,-0.118 0.503,-0.099C0.509,-0.094 0.516,-0.09 0.524,-0.09C0.571,-0.085 0.604,-0.055 0.642,-0.033C0.649,-0.028 0.651,-0.02 0.656,-0.014C0.676,0.008 0.689,0.033 0.699,0.061C0.71,0.092 0.731,0.118 0.748,0.145C0.758,0.162 0.77,0.177 0.783,0.191C0.602,0.284 0.371,0.253 0.215,0.097C0.099,-0.019 0.052,-0.177 0.074,-0.326C0.075,-0.323 0.076,-0.32 0.078,-0.317Z" style="fill:url(#_Linear29);fill-rule:nonzero;"/>
        </g>
        <g transform="matrix(-137.364,137.364,137.364,137.364,825.928,350.148)">
            <path d="M0.667,-0.005C0.669,-0.008 0.671,-0.008 0.672,-0.004C0.677,-0.007 0.681,-0.004 0.685,-0.003C0.684,0.001 0.684,0.005 0.683,0.008C0.678,0.007 0.674,0.006 0.67,0.005C0.663,0.003 0.661,-0.001 0.666,-0.008C0.666,-0.007 0.667,-0.006 0.667,-0.005Z" style="fill:url(#_Linear30);fill-rule:nonzero;"/>
        </g>
        <g transform="matrix(-137.364,137.364,137.364,137.364,833.947,358.166)">
            <path d="M0.676,-0.002C0.676,-0.002 0.677,-0.001 0.677,-0.001C0.676,-0 0.675,0 0.675,0.001C0.673,0.003 0.671,0.005 0.669,0.005C0.664,0.004 0.666,-0.001 0.665,-0.005C0.669,-0.004 0.673,-0.003 0.676,-0.002Z" style="fill:url(#_Linear31);fill-rule:nonzero;"/>
        </g>
        <g transform="matrix(-137.364,137.364,137.364,137.364,911.027,435.246)">
            <path d="M0.9,-0.001C0.899,-0.001 0.899,-0 0.899,0C0.899,0 0.898,0.001 0.898,0.001L0.9,-0.001Z" style="fill:url(#_Linear32);fill-rule:nonzero;"/>
        </g>
        <g transform="matrix(-137.364,137.364,137.364,137.364,823.628,347.847)">
            <path d="M0.622,-0.002C0.616,0.005 0.614,0.006 0.606,0.002C0.607,0.001 0.608,-0.001 0.609,-0.001C0.613,-0.006 0.616,-0.006 0.622,-0.002Z" style="fill:url(#_Linear33);fill-rule:nonzero;"/>
        </g>
        <g transform="matrix(-137.364,137.364,137.364,137.364,827.189,351.408)">
            <path d="M0.693,0.002C0.691,0.007 0.686,0.009 0.68,0.009C0.681,0.007 0.681,0.005 0.682,0.003C0.684,0.003 0.686,0.003 0.688,0.003C0.689,-0.001 0.69,-0.005 0.691,-0.009C0.695,-0.006 0.695,-0.001 0.693,0.002Z" style="fill:url(#_Linear34);fill-rule:nonzero;"/>
        </g>
        <g transform="matrix(-64.5286,183.232,183.232,64.5286,776.388,319.139)">
            <path d="M0.687,-0.005C0.688,-0.002 0.689,0.002 0.689,0.005C0.689,0.005 0.688,0.005 0.687,0.005C0.686,0.002 0.686,-0.002 0.685,-0.005C0.686,-0.005 0.686,-0.005 0.687,-0.005Z" style="fill:url(#_Linear35);fill-rule:nonzero;"/>
        </g>
        <g transform="matrix(-137.364,137.364,137.364,137.364,824.511,348.73)">
            <path d="M0.629,-0.007C0.638,-0.006 0.646,-0.003 0.655,-0C0.655,0.003 0.654,0.005 0.653,0.008C0.642,0.005 0.631,0.002 0.62,-0C0.62,-0.001 0.62,-0.001 0.62,-0.002C0.623,-0.004 0.626,-0.008 0.629,-0.007Z" style="fill:url(#_Linear36);fill-rule:nonzero;"/>
        </g>
        <g transform="matrix(43.3046,189.374,189.374,-43.3046,707.271,317.041)">
            <path d="M0.668,-0.007C0.669,-0.005 0.671,-0.004 0.673,-0.002C0.671,0 0.669,0.002 0.668,0.003C0.663,0.003 0.66,0.003 0.656,0.004C0.66,0 0.664,-0.004 0.668,-0.007Z" style="fill:url(#_Linear37);fill-rule:nonzero;"/>
        </g>
    </g>
    <g transform="matrix(0.570653,0,0,0.570653,234.116,159.159)">
        <g transform="matrix(104.925,0,0,104.925,0,0)">
            <path d="M0.445,-0.553L0.376,-0.498C0.358,-0.516 0.341,-0.531 0.327,-0.54C0.312,-0.549 0.29,-0.554 0.262,-0.554C0.232,-0.554 0.207,-0.547 0.188,-0.533C0.169,-0.519 0.16,-0.501 0.16,-0.48C0.16,-0.461 0.168,-0.444 0.185,-0.43C0.201,-0.415 0.229,-0.4 0.269,-0.382C0.309,-0.365 0.34,-0.349 0.363,-0.334C0.385,-0.32 0.403,-0.303 0.418,-0.285C0.432,-0.268 0.442,-0.249 0.449,-0.229C0.456,-0.209 0.46,-0.188 0.46,-0.166C0.46,-0.114 0.441,-0.07 0.404,-0.034C0.366,0.003 0.32,0.021 0.267,0.021C0.215,0.021 0.169,0.007 0.129,-0.022C0.089,-0.05 0.059,-0.093 0.037,-0.15L0.122,-0.174C0.153,-0.104 0.2,-0.069 0.264,-0.069C0.295,-0.069 0.321,-0.078 0.341,-0.097C0.362,-0.115 0.372,-0.138 0.372,-0.167C0.372,-0.184 0.367,-0.201 0.356,-0.218C0.345,-0.235 0.332,-0.249 0.316,-0.26C0.3,-0.271 0.275,-0.283 0.24,-0.298C0.205,-0.312 0.178,-0.325 0.159,-0.337C0.14,-0.349 0.124,-0.363 0.11,-0.379C0.097,-0.396 0.087,-0.412 0.08,-0.428C0.074,-0.445 0.071,-0.462 0.071,-0.481C0.071,-0.525 0.089,-0.563 0.125,-0.595C0.16,-0.626 0.204,-0.642 0.255,-0.642C0.289,-0.642 0.323,-0.634 0.358,-0.62C0.393,-0.605 0.422,-0.583 0.445,-0.553Z" style="fill:white;fill-rule:nonzero;"/>
        </g>
        <g transform="matrix(104.925,0,0,104.925,67.1522,0)">
            <path d="M0.578,-0.648L0.749,-0L0.665,-0L0.562,-0.396L0.385,0.024L0.207,-0.399L0.103,-0L0.02,-0L0.19,-0.648L0.385,-0.184L0.578,-0.648Z" style="fill:white;fill-rule:nonzero;"/>
        </g>
        <g transform="matrix(104.925,0,0,104.925,162.739,0)">
            <path d="M0.039,-0.315C0.039,-0.404 0.073,-0.481 0.141,-0.545C0.208,-0.61 0.29,-0.642 0.385,-0.642C0.478,-0.642 0.557,-0.609 0.625,-0.545C0.692,-0.48 0.725,-0.403 0.725,-0.315C0.725,-0.221 0.692,-0.141 0.626,-0.076C0.559,-0.011 0.478,0.021 0.382,0.021C0.287,0.021 0.206,-0.012 0.139,-0.077C0.072,-0.142 0.039,-0.222 0.039,-0.315ZM0.635,-0.311C0.635,-0.379 0.61,-0.437 0.561,-0.484C0.511,-0.531 0.45,-0.555 0.378,-0.555C0.309,-0.555 0.25,-0.531 0.201,-0.483C0.152,-0.435 0.128,-0.378 0.128,-0.311C0.128,-0.243 0.153,-0.185 0.203,-0.138C0.254,-0.091 0.315,-0.068 0.388,-0.068C0.455,-0.068 0.513,-0.092 0.562,-0.14C0.61,-0.188 0.635,-0.245 0.635,-0.311Z" style="fill:white;fill-rule:nonzero;"/>
        </g>
        <g transform="matrix(104.925,0,0,104.925,258.325,0)">
            <path d="M0.039,-0.315C0.039,-0.404 0.073,-0.481 0.141,-0.545C0.208,-0.61 0.29,-0.642 0.385,-0.642C0.478,-0.642 0.557,-0.609 0.625,-0.545C0.692,-0.48 0.725,-0.403 0.725,-0.315C0.725,-0.221 0.692,-0.141 0.626,-0.076C0.559,-0.011 0.478,0.021 0.382,0.021C0.287,0.021 0.206,-0.012 0.139,-0.077C0.072,-0.142 0.039,-0.222 0.039,-0.315ZM0.635,-0.311C0.635,-0.379 0.61,-0.437 0.561,-0.484C0.511,-0.531 0.45,-0.555 0.378,-0.555C0.309,-0.555 0.25,-0.531 0.201,-0.483C0.152,-0.435 0.128,-0.378 0.128,-0.311C0.128,-0.243 0.153,-0.185 0.203,-0.138C0.254,-0.091 0.315,-0.068 0.388,-0.068C0.455,-0.068 0.513,-0.092 0.562,-0.14C0.61,-0.188 0.635,-0.245 0.635,-0.311Z" style="fill:white;fill-rule:nonzero;"/>
        </g>
        <g transform="matrix(104.925,0,0,104.925,351.811,0)">
            <path d="M0.027,-0.622L0.407,-0.622L0.407,-0.537L0.259,-0.537L0.259,-0L0.175,-0L0.175,-0.537L0.027,-0.537L0.027,-0.622Z" style="fill:white;fill-rule:nonzero;"/>
        </g>
        <g transform="matrix(104.925,0,0,104.925,412.457,0)">
            <path d="M0.068,-0.622L0.153,-0.622L0.153,-0.383L0.45,-0.383L0.45,-0.622L0.534,-0.622L0.534,-0L0.45,-0L0.45,-0.299L0.153,-0.299L0.153,-0L0.068,-0L0.068,-0.622Z" style="fill:white;fill-rule:nonzero;"/>
        </g>
    </g>
    <defs>
        <linearGradient id="_Linear1" x1="0" y1="0" x2="1" y2="0" gradientUnits="userSpaceOnUse" gradientTransform="matrix(1,0,0,-1,0,2.76568e-06)"><stop offset="0" style="stop-color:rgb(255,124,6);stop-opacity:1"/><stop offset="0.46" style="stop-color:rgb(255,237,99);stop-opacity:1"/><stop offset="0.99" style="stop-color:rgb(239,170,113);stop-opacity:1"/><stop offset="1" style="stop-color:rgb(239,170,113);stop-opacity:1"/></linearGradient>
        <linearGradient id="_Linear2" x1="0" y1="0" x2="1" y2="0" gradientUnits="userSpaceOnUse" gradientTransform="matrix(1,0,0,-1,0,3.16487e-06)"><stop offset="0" style="stop-color:rgb(255,124,6);stop-opacity:1"/><stop offset="0.46" style="stop-color:rgb(255,237,99);stop-opacity:1"/><stop offset="0.99" style="stop-color:rgb(239,170,113);stop-opacity:1"/><stop offset="1" style="stop-color:rgb(239,170,113);stop-opacity:1"/></linearGradient>
        <linearGradient id="_Linear3" x1="0" y1="0" x2="1" y2="0" gradientUnits="userSpaceOnUse" gradientTransform="matrix(1,0,0,-1,0,-0.0433187)"><stop offset="0" style="stop-color:rgb(255,124,6);stop-opacity:1"/><stop offset="0.46" style="stop-color:rgb(255,237,99);stop-opacity:1"/><stop offset="0.99" style="stop-color:rgb(239,170,113);stop-opacity:1"/><stop offset="1" style="stop-color:rgb(239,170,113);stop-opacity:1"/></linearGradient>
        <linearGradient id="_Linear4" x1="0" y1="0" x2="1" y2="0" gradientUnits="userSpaceOnUse" gradientTransform="matrix(1,0,0,-1,0,-1.83147e-06)"><stop offset="0" style="stop-color:rgb(255,124,6);stop-opacity:1"/><stop offset="0.46" style="stop-color:rgb(255,237,99);stop-opacity:1"/><stop offset="0.99" style="stop-color:rgb(239,170,113);stop-opacity:1"/><stop offset="1" style="stop-color:rgb(239,170,113);stop-opacity:1"/></linearGradient>
        <linearGradient id="_Linear5" x1="0" y1="0" x2="1" y2="0" gradientUnits="userSpaceOnUse" gradientTransform="matrix(1,0,0,-1,0,-0.0015806)"><stop offset="0" style="stop-color:rgb(255,124,6);stop-opacity:1"/><stop offset="0.46" style="stop-color:rgb(255,237,99);stop-opacity:1"/><stop offset="0.99" style="stop-color:rgb(239,170,113);stop-opacity:1"/><stop offset="1" style="stop-color:rgb(239,170,113);stop-opacity:1"/></linearGradient>
        <linearGradient id="_Linear6" x1="0" y1="0" x2="1" y2="0" gradientUnits="userSpaceOnUse" gradientTransform="matrix(1,0,0,-1,0,8.83208e-06)"><stop offset="0" style="stop-color:rgb(239,170,113);stop-opacity:1"/><stop offset="0.01" style="stop-color:rgb(239,170,113);stop-opacity:1"/><stop offset="0.54" style="stop-color:rgb(255,237,99);stop-opacity:1"/><stop offset="1" style="stop-color:rgb(255,124,6);stop-opacity:1"/></linearGradient>
        <linearGradient id="_Linear7" x1="0" y1="0" x2="1" y2="0" gradientUnits="userSpaceOnUse" gradientTransform="matrix(1,0,0,-1,0,-5.45589e-06)"><stop offset="0" style="stop-color:rgb(239,170,113);stop-opacity:1"/><stop offset="0.01" style="stop-color:rgb(239,170,113);stop-opacity:1"/><stop offset="0.54" style="stop-color:rgb(255,237,99);stop-opacity:1"/><stop offset="1" style="stop-color:rgb(255,124,6);stop-opacity:1"/></linearGradient>
        <linearGradient id="_Linear8" x1="0" y1="0" x2="1" y2="0" gradientUnits="userSpaceOnUse" gradientTransform="matrix(1,0,0,-1,0,-1.34132e-05)"><stop offset="0" style="stop-color:rgb(239,170,113);stop-opacity:1"/><stop offset="0.01" style="stop-color:rgb(239,170,113);stop-opacity:1"/><stop offset="0.54" style="stop-color:rgb(255,237,99);stop-opacity:1"/><stop offset="1" style="stop-color:rgb(255,124,6);stop-opacity:1"/></linearGradient>
        <linearGradient id="_Linear9" x1="0" y1="0" x2="1" y2="0" gradientUnits="userSpaceOnUse" gradientTransform="matrix(1,0,0,-1,0,-0.137922)"><stop offset="0" style="stop-color:rgb(239,170,113);stop-opacity:1"/><stop offset="0.01" style="stop-color:rgb(239,170,113);stop-opacity:1"/><stop offset="0.54" style="stop-color:rgb(255,237,99);stop-opacity:1"/><stop offset="1" style="stop-color:rgb(255,124,6);stop-opacity:1"/></linearGradient>
        <linearGradient id="_Linear10" x1="0" y1="0" x2="1" y2="0" gradientUnits="userSpaceOnUse" gradientTransform="matrix(1,0,0,-1,0,-0.204182)"><stop offset="0" style="stop-color:rgb(239,170,113);stop-opacity:1"/><stop offset="0.01" style="stop-color:rgb(239,170,113);stop-opacity:1"/><stop offset="0.54" style="stop-color:rgb(255,237,99);stop-opacity:1"/><stop offset="1" style="stop-color:rgb(255,124,6);stop-opacity:1"/></linearGradient>
        <linearGradient id="_Linear11" x1="0" y1="0" x2="1" y2="0" gradientUnits="userSpaceOnUse" gradientTransform="matrix(1,0,0,-1,0,9.302e-07)"><stop offset="0" style="stop-color:rgb(239,170,113);stop-opacity:1"/><stop offset="0.01" style="stop-color:rgb(239,170,113);stop-opacity:1"/><stop offset="0.54" style="stop-color:rgb(255,237,99);stop-opacity:1"/><stop offset="1" style="stop-color:rgb(255,124,6);stop-opacity:1"/></linearGradient>
        <linearGradient id="_Linear12" x1="0" y1="0" x2="1" y2="0" gradientUnits="userSpaceOnUse" gradientTransform="matrix(0.456219,0.889868,0.889868,-0.456219,0.271895,-0.444941)"><stop offset="0" style="stop-color:rgb(239,170,113);stop-opacity:1"/><stop offset="0.01" style="stop-color:rgb(239,170,113);stop-opacity:1"/><stop offset="0.54" style="stop-color:rgb(255,237,99);stop-opacity:1"/><stop offset="1" style="stop-color:rgb(255,124,6);stop-opacity:1"/></linearGradient>
        <linearGradient id="_Linear13" x1="0" y1="0" x2="1" y2="0" gradientUnits="userSpaceOnUse" gradientTransform="matrix(1,0,0,-1,0,-0.0050591)"><stop offset="0" style="stop-color:rgb(239,170,113);stop-opacity:1"/><stop offset="0.01" style="stop-color:rgb(239,170,113);stop-opacity:1"/><stop offset="0.54" style="stop-color:rgb(255,237,99);stop-opacity:1"/><stop offset="1" style="stop-color:rgb(255,124,6);stop-opacity:1"/></linearGradient>
        <linearGradient id="_Linear14" x1="0" y1="0" x2="1" y2="0" gradientUnits="userSpaceOnUse" gradientTransform="matrix(1,0,0,-1,0,0.048901)"><stop offset="0" style="stop-color:rgb(255,124,6);stop-opacity:1"/><stop offset="0.46" style="stop-color:rgb(255,237,99);stop-opacity:1"/><stop offset="0.99" style="stop-color:rgb(239,170,113);stop-opacity:1"/><stop offset="1" style="stop-color:rgb(239,170,113);stop-opacity:1"/></linearGradient>
        <linearGradient id="_Linear15" x1="0" y1="0" x2="1" y2="0" gradientUnits="userSpaceOnUse" gradientTransform="matrix(1,0,0,-1,0,-6.47644e-05)"><stop offset="0" style="stop-color:rgb(255,124,6);stop-opacity:1"/><stop offset="0.46" style="stop-color:rgb(255,237,99);stop-opacity:1"/><stop offset="0.99" style="stop-color:rgb(239,170,113);stop-opacity:1"/><stop offset="1" style="stop-color:rgb(239,170,113);stop-opacity:1"/></linearGradient>
        <linearGradient id="_Linear16" x1="0" y1="0" x2="1" y2="0" gradientUnits="userSpaceOnUse" gradientTransform="matrix(1,0,0,-1,0,-0.00231918)"><stop offset="0" style="stop-color:rgb(255,124,6);stop-opacity:1"/><stop offset="0.46" style="stop-color:rgb(255,237,99);stop-opacity:1"/><stop offset="0.99" style="stop-color:rgb(239,170,113);stop-opacity:1"/><stop offset="1" style="stop-color:rgb(239,170,113);stop-opacity:1"/></linearGradient>
        <linearGradient id="_Linear17" x1="0" y1="0" x2="1" y2="0" gradientUnits="userSpaceOnUse" gradientTransform="matrix(1,0,0,-1,0,-0.000103966)"><stop offset="0" style="stop-color:rgb(255,124,6);stop-opacity:1"/><stop offset="0.46" style="stop-color:rgb(255,237,99);stop-opacity:1"/><stop offset="0.99" style="stop-color:rgb(239,170,113);stop-opacity:1"/><stop offset="1" style="stop-color:rgb(239,170,113);stop-opacity:1"/></linearGradient>
        <linearGradient id="_Linear18" x1="0" y1="0" x2="1" y2="0" gradientUnits="userSpaceOnUse" gradientTransform="matrix(1,0,0,-1,0,-7.89144e-07)"><stop offset="0" style="stop-color:rgb(255,124,6);stop-opacity:1"/><stop offset="0.46" style="stop-color:rgb(255,237,99);stop-opacity:1"/><stop offset="0.99" style="stop-color:rgb(239,170,113);stop-opacity:1"/><stop offset="1" style="stop-color:rgb(239,170,113);stop-opacity:1"/></linearGradient>
        <linearGradient id="_Linear19" x1="0" y1="0" x2="1" y2="0" gradientUnits="userSpaceOnUse" gradientTransform="matrix(1,0,0,-1,0,0.000359064)"><stop offset="0" style="stop-color:rgb(255,124,6);stop-opacity:1"/><stop offset="0.46" style="stop-color:rgb(255,237,99);stop-opacity:1"/><stop offset="0.99" style="stop-color:rgb(239,170,113);stop-opacity:1"/><stop offset="1" style="stop-color:rgb(239,170,113);stop-opacity:1"/></linearGradient>
        <linearGradient id="_Linear20" x1="0" y1="0" x2="1" y2="0" gradientUnits="userSpaceOnUse" gradientTransform="matrix(1,0,0,-1,0,-0.00096928)"><stop offset="0" style="stop-color:rgb(255,124,6);stop-opacity:1"/><stop offset="0.46" style="stop-color:rgb(255,237,99);stop-opacity:1"/><stop offset="0.99" style="stop-color:rgb(239,170,113);stop-opacity:1"/><stop offset="1" style="stop-color:rgb(239,170,113);stop-opacity:1"/></linearGradient>
        <linearGradient id="_Linear21" x1="0" y1="0" x2="1" y2="0" gradientUnits="userSpaceOnUse" gradientTransform="matrix(1,0,0,-1,0,0.0013586)"><stop offset="0" style="stop-color:rgb(255,124,6);stop-opacity:1"/><stop offset="0.46" style="stop-color:rgb(255,237,99);stop-opacity:1"/><stop offset="0.99" style="stop-color:rgb(239,170,113);stop-opacity:1"/><stop offset="1" style="stop-color:rgb(239,170,113);stop-opacity:1"/></linearGradient>
        <linearGradient id="_Linear22" x1="0" y1="0" x2="1" y2="0" gradientUnits="userSpaceOnUse" gradientTransform="matrix(1,0,0,-1,0,-0.00146858)"><stop offset="0" style="stop-color:rgb(255,124,6);stop-opacity:1"/><stop offset="0.46" style="stop-color:rgb(255,237,99);stop-opacity:1"/><stop offset="0.99" style="stop-color:rgb(239,170,113);stop-opacity:1"/><stop offset="1" style="stop-color:rgb(239,170,113);stop-opacity:1"/></linearGradient>
        <linearGradient id="_Linear23" x1="0" y1="0" x2="1" y2="0" gradientUnits="userSpaceOnUse" gradientTransform="matrix(1,0,0,-1,0,1.21575e-06)"><stop offset="0" style="stop-color:rgb(255,124,6);stop-opacity:1"/><stop offset="0.46" style="stop-color:rgb(255,237,99);stop-opacity:1"/><stop offset="0.99" style="stop-color:rgb(239,170,113);stop-opacity:1"/><stop offset="1" style="stop-color:rgb(239,170,113);stop-opacity:1"/></linearGradient>
        <linearGradient id="_Linear24" x1="0" y1="0" x2="1" y2="0" gradientUnits="userSpaceOnUse" gradientTransform="matrix(1,0,0,-1,0,0.000222992)"><stop offset="0" style="stop-color:rgb(255,124,6);stop-opacity:1"/><stop offset="0.46" style="stop-color:rgb(255,237,99);stop-opacity:1"/><stop offset="0.99" style="stop-color:rgb(239,170,113);stop-opacity:1"/><stop offset="1" style="stop-color:rgb(239,170,113);stop-opacity:1"/></linearGradient>
        <linearGradient id="_Linear25" x1="0" y1="0" x2="1" y2="0" gradientUnits="userSpaceOnUse" gradientTransform="matrix(0.874566,-0.484906,-0.484906,-0.874566,0.0121116,0.0468213)"><stop offset="0" style="stop-color:rgb(255,124,6);stop-opacity:1"/><stop offset="0.46" style="stop-color:rgb(255,237,99);stop-opacity:1"/><stop offset="0.99" style="stop-color:rgb(239,170,113);stop-opacity:1"/><stop offset="1" style="stop-color:rgb(239,170,113);stop-opacity:1"/></linearGradient>
        <linearGradient id="_Linear26" x1="0" y1="0" x2="1" y2="0" gradientUnits="userSpaceOnUse" gradientTransform="matrix(0.555544,-0.831487,-0.831487,-0.555544,0.231449,0.432995)"><stop offset="0" style="stop-color:rgb(255,124,6);stop-opacity:1"/><stop offset="0.46" style="stop-color:rgb(255,237,99);stop-opacity:1"/><stop offset="0.99" style="stop-color:rgb(239,170,113);stop-opacity:1"/><stop offset="1" style="stop-color:rgb(239,170,113);stop-opacity:1"/></linearGradient>
        <linearGradient id="_Linear27" x1="0" y1="0" x2="1" y2="0" gradientUnits="userSpaceOnUse" gradientTransform="matrix(1,0,0,-1,0,-0.00126757)"><stop offset="0" style="stop-color:rgb(255,124,6);stop-opacity:1"/><stop offset="0.46" style="stop-color:rgb(255,237,99);stop-opacity:1"/><stop offset="0.99" style="stop-color:rgb(239,170,113);stop-opacity:1"/><stop offset="1" style="stop-color:rgb(239,170,113);stop-opacity:1"/></linearGradient>
        <linearGradient id="_Linear28" x1="0" y1="0" x2="1" y2="0" gradientUnits="userSpaceOnUse" gradientTransform="matrix(1,0,0,-1,0,0.00016417)"><stop offset="0" style="stop-color:rgb(255,124,6);stop-opacity:1"/><stop offset="0.46" style="stop-color:rgb(255,237,99);stop-opacity:1"/><stop offset="0.99" style="stop-color:rgb(239,170,113);stop-opacity:1"/><stop offset="1" style="stop-color:rgb(239,170,113);stop-opacity:1"/></linearGradient>
        <linearGradient id="_Linear29" x1="0" y1="0" x2="1" y2="0" gradientUnits="userSpaceOnUse" gradientTransform="matrix(1,0,0,-1,0,-0.0411555)"><stop offset="0" style="stop-color:rgb(255,124,6);stop-opacity:1"/><stop offset="0.46" style="stop-color:rgb(255,237,99);stop-opacity:1"/><stop offset="0.99" style="stop-color:rgb(239,170,113);stop-opacity:1"/><stop offset="1" style="stop-color:rgb(239,170,113);stop-opacity:1"/></linearGradient>
        <linearGradient id="_Linear30" x1="0" y1="0" x2="1" y2="0" gradientUnits="userSpaceOnUse" gradientTransform="matrix(1,0,0,-1,0,4.7203e-06)"><stop offset="0" style="stop-color:rgb(255,124,6);stop-opacity:1"/><stop offset="0.46" style="stop-color:rgb(255,237,99);stop-opacity:1"/><stop offset="0.99" style="stop-color:rgb(239,170,113);stop-opacity:1"/><stop offset="1" style="stop-color:rgb(239,170,113);stop-opacity:1"/></linearGradient>
        <linearGradient id="_Linear31" x1="0" y1="0" x2="1" y2="0" gradientUnits="userSpaceOnUse" gradientTransform="matrix(1,0,0,-1,0,-8.47711e-05)"><stop offset="0" style="stop-color:rgb(255,124,6);stop-opacity:1"/><stop offset="0.46" style="stop-color:rgb(255,237,99);stop-opacity:1"/><stop offset="0.99" style="stop-color:rgb(239,170,113);stop-opacity:1"/><stop offset="1" style="stop-color:rgb(239,170,113);stop-opacity:1"/></linearGradient>
        <linearGradient id="_Linear32" x1="0" y1="0" x2="1" y2="0" gradientUnits="userSpaceOnUse" gradientTransform="matrix(1,0,0,-1,0,9.45735e-06)"><stop offset="0" style="stop-color:rgb(255,124,6);stop-opacity:1"/><stop offset="0.46" style="stop-color:rgb(255,237,99);stop-opacity:1"/><stop offset="0.99" style="stop-color:rgb(239,170,113);stop-opacity:1"/><stop offset="1" style="stop-color:rgb(239,170,113);stop-opacity:1"/></linearGradient>
        <linearGradient id="_Linear33" x1="0" y1="0" x2="1" y2="0" gradientUnits="userSpaceOnUse" gradientTransform="matrix(1,0,0,-1,0,-0.000308179)"><stop offset="0" style="stop-color:rgb(255,124,6);stop-opacity:1"/><stop offset="0.46" style="stop-color:rgb(255,237,99);stop-opacity:1"/><stop offset="0.99" style="stop-color:rgb(239,170,113);stop-opacity:1"/><stop offset="1" style="stop-color:rgb(239,170,113);stop-opacity:1"/></linearGradient>
        <linearGradient id="_Linear34" x1="0" y1="0" x2="1" y2="0" gradientUnits="userSpaceOnUse" gradientTransform="matrix(1,0,0,-1,0,-4.69555e-07)"><stop offset="0" style="stop-color:rgb(255,124,6);stop-opacity:1"/><stop offset="0.46" style="stop-color:rgb(255,237,99);stop-opacity:1"/><stop offset="0.99" style="stop-color:rgb(239,170,113);stop-opacity:1"/><stop offset="1" style="stop-color:rgb(239,170,113);stop-opacity:1"/></linearGradient>
        <linearGradient id="_Linear35" x1="0" y1="0" x2="1" y2="0" gradientUnits="userSpaceOnUse" gradientTransform="matrix(0.901838,-0.432075,-0.432075,-0.901838,0.0674541,0.296909)"><stop offset="0" style="stop-color:rgb(255,124,6);stop-opacity:1"/><stop offset="0.46" style="stop-color:rgb(255,237,99);stop-opacity:1"/><stop offset="0.99" style="stop-color:rgb(239,170,113);stop-opacity:1"/><stop offset="1" style="stop-color:rgb(239,170,113);stop-opacity:1"/></linearGradient>
        <linearGradient id="_Linear36" x1="0" y1="0" x2="1" y2="0" gradientUnits="userSpaceOnUse" gradientTransform="matrix(1,0,0,-1,0,0.000383811)"><stop offset="0" style="stop-color:rgb(255,124,6);stop-opacity:1"/><stop offset="0.46" style="stop-color:rgb(255,237,99);stop-opacity:1"/><stop offset="0.99" style="stop-color:rgb(239,170,113);stop-opacity:1"/><stop offset="1" style="stop-color:rgb(239,170,113);stop-opacity:1"/></linearGradient>
        <linearGradient id="_Linear37" x1="0" y1="0" x2="1" y2="0" gradientUnits="userSpaceOnUse" gradientTransform="matrix(0.531687,-0.846941,-0.846941,-0.531687,0.311401,0.563167)"><stop offset="0" style="stop-color:rgb(255,124,6);stop-opacity:1"/><stop offset="0.46" style="stop-color:rgb(255,237,99);stop-opacity:1"/><stop offset="0.99" style="stop-color:rgb(239,170,113);stop-opacity:1"/><stop offset="1" style="stop-color:rgb(239,170,113);stop-opacity:1"/></linearGradient>
    </defs>
</svg>
